<?xml version="1.0" encoding="utf-8"?>
<!-- Generator: Adobe Illustrator 27.5.0, SVG Export Plug-In . SVG Version: 6.00 Build 0)  -->
<svg version="1.1" id="Capa_1" xmlns="http://www.w3.org/2000/svg" xmlns:xlink="http://www.w3.org/1999/xlink" x="0px" y="0px"
	 viewBox="0 0 1070 245.6" style="enable-background:new 0 0 1070 245.6;" xml:space="preserve">
<style type="text/css">
	.st0{fill:url(#SVGID_1_);}
	.st1{fill:url(#SVGID_00000141433132206384108010000007845030080060225709_);}
	.st2{fill:url(#SVGID_00000111176362930237802740000011489258437109496973_);}
	.st3{fill:#3F3F41;}
	.st4{fill:#C61443;}
	.st5{fill:#FFFFFF;}
	.st6{fill:url(#SVGID_00000032643493074334705220000007639324676161880758_);}
	.st7{fill:url(#SVGID_00000046301433381137360870000004447926767939139977_);}
	.st8{fill:url(#SVGID_00000039834398404738996050000012420539621543493002_);}
	.st9{fill:url(#SVGID_00000034771636568747128770000015133012612841759630_);}
	.st10{fill:url(#SVGID_00000034086333016744782810000010947733684436640665_);}
	.st11{fill:url(#SVGID_00000050656847757608777840000012634868911365967542_);}
	.st12{fill:url(#SVGID_00000157275406958466941210000013773258807662512062_);}
	.st13{fill:#6F7271;}
	.st14{fill:#9F2241;}
</style>
<g>
	
		<linearGradient id="SVGID_1_" gradientUnits="userSpaceOnUse" x1="630.8804" y1="23.3545" x2="882.7986" y2="143.7041" gradientTransform="matrix(1 0 0 -1 0 225.3529)">
		<stop  offset="0" style="stop-color:#E6E6E6"/>
		<stop  offset="6.617802e-02" style="stop-color:#D5D5D5"/>
		<stop  offset="0.1936" style="stop-color:#BBBABB"/>
		<stop  offset="0.3324" style="stop-color:#A7A4A7"/>
		<stop  offset="0.4866" style="stop-color:#989598"/>
		<stop  offset="0.668" style="stop-color:#908D90"/>
		<stop  offset="0.9446" style="stop-color:#8D8A8D"/>
	</linearGradient>
	<path class="st0" d="M886.6,92.3c-40.4,10.3-93,22.3-149.6,54.6c-56.5,32.3-125.3,85.4-125.3,85.4s90.9-86.6,164.5-121.1
		c39.1-18.2,74-32.3,104.6-42.7"/>
	
		<linearGradient id="SVGID_00000174573649435403825740000014629385418162885812_" gradientUnits="userSpaceOnUse" x1="887.8495" y1="134.2904" x2="887.8495" y2="134.2904" gradientTransform="matrix(1 0 0 -1 0 225.3529)">
		<stop  offset="9.796342e-03" style="stop-color:#B3B3B3"/>
		<stop  offset="5.791876e-02" style="stop-color:#A7A7A7"/>
		<stop  offset="0.1856" style="stop-color:#8C8C8C"/>
		<stop  offset="0.3246" style="stop-color:#767677"/>
		<stop  offset="0.479" style="stop-color:#676768"/>
		<stop  offset="0.6608" style="stop-color:#5F5F60"/>
		<stop  offset="0.9379" style="stop-color:#5C5C5D"/>
	</linearGradient>
	<path style="fill:url(#SVGID_00000174573649435403825740000014629385418162885812_);" d="M887.8,91.1"/>
	
		<linearGradient id="SVGID_00000030463258085259284100000000200777224040159409_" gradientUnits="userSpaceOnUse" x1="996.7759" y1="147.2722" x2="996.7759" y2="147.2722" gradientTransform="matrix(1 0 0 -1 0 225.3529)">
		<stop  offset="9.796342e-03" style="stop-color:#B3B3B3"/>
		<stop  offset="5.791876e-02" style="stop-color:#A7A7A7"/>
		<stop  offset="0.1856" style="stop-color:#8C8C8C"/>
		<stop  offset="0.3246" style="stop-color:#767677"/>
		<stop  offset="0.479" style="stop-color:#676768"/>
		<stop  offset="0.6608" style="stop-color:#5F5F60"/>
		<stop  offset="0.9379" style="stop-color:#5C5C5D"/>
	</linearGradient>
	<path style="fill:url(#SVGID_00000030463258085259284100000000200777224040159409_);" d="M996.8,78.1"/>
	<g>
		<path class="st3" d="M497.7,80.1c5.3-5.4,12-8,20-8c10.9,0,18.8,3.6,23.8,10.8c2.8,4,4.3,8.1,4.5,12.1h-13.6
			c-0.8-3.1-2-5.5-3.3-7.1c-2.4-2.8-6-4.2-10.8-4.2c-4.8,0-8.7,2-11.5,6c-2.8,4-4.2,9.7-4.2,17s1.4,12.8,4.4,16.4
			c3,3.6,6.7,5.4,11.3,5.4c4.6,0,8.2-1.6,10.7-4.7c1.3-1.7,2.5-4.2,3.4-7.5h13.6c-1.1,7.1-4.2,12.9-8.9,17.3s-10.9,6.7-18.4,6.7
			c-9.3,0-16.5-3-21.9-9c-5.3-6-8-14.3-8-24.9C488.6,95,491.6,86.2,497.7,80.1z"/>
		<path class="st3" d="M595.4,132.5c-4,5-10.3,7.5-18.5,7.5c-8.3,0-14.5-2.5-18.5-7.5c-4-5-6.1-11-6.1-18.1c0-6.9,2.1-13,6.1-18.1
			c4-5.1,10.3-7.7,18.5-7.7c8.3,0,14.5,2.5,18.5,7.7c4,5.1,6.1,11.1,6.1,18.1C601.5,121.5,599.5,127.5,595.4,132.5z M585.3,125.6
			c2-2.6,3-6.3,3-11.2c0-4.8-1-8.6-3-11.2c-2-2.6-4.8-3.9-8.5-3.9s-6.5,1.3-8.5,3.9c-2,2.6-3,6.3-3,11.2c0,4.8,1,8.6,3,11.2
			c2,2.6,4.8,3.9,8.5,3.9S583.4,128.2,585.3,125.6z"/>
		<path class="st3" d="M670.1,90.5c2.1,0.8,3.9,2.3,5.6,4.3c1.3,1.7,2.3,3.7,2.7,6.2c0.3,1.6,0.4,4,0.4,7.1l-0.1,30.4h-12.9v-30.7
			c0-1.8-0.3-3.3-0.9-4.5c-1.1-2.2-3.2-3.4-6.2-3.4c-3.5,0-5.9,1.4-7.2,4.3c-0.7,1.5-1,3.4-1,5.6v28.7h-12.7v-28.7
			c0-2.8-0.3-5-0.9-6.2c-1.1-2.4-3.1-3.5-6.2-3.5c-3.6,0-6,1.1-7.2,3.5c-0.7,1.3-1,3.3-1,5.9v29h-12.8V90.4h12.3v7
			c1.6-2.5,3-4.3,4.4-5.4c2.5-1.9,5.6-2.8,9.5-2.8c3.7,0,6.6,0.8,8.9,2.4c1.8,1.5,3.2,3.4,4.2,5.8c1.6-2.8,3.7-4.9,6.2-6.2
			c2.6-1.3,5.5-2,8.7-2C665.9,89.2,668,89.6,670.1,90.5z"/>
		<path class="st3" d="M730.4,95.4c3.9,4.2,5.9,10.3,5.9,18.3c0,8.5-1.9,15-5.7,19.4c-3.9,4.5-8.8,6.7-14.9,6.7
			c-3.9,0-7.1-1-9.6-2.9c-1.4-1.1-2.8-2.6-4.1-4.6v25.1h-12.5V90.3h12.1v7.1c1.4-2.1,2.8-3.7,4.3-5c2.8-2.2,6.2-3.2,10.1-3.2
			C721.6,89.2,726.4,91.2,730.4,95.4z M720.7,104.5c-1.7-2.8-4.5-4.3-8.3-4.3c-4.6,0-7.8,2.2-9.5,6.5c-0.9,2.3-1.3,5.2-1.3,8.8
			c0,5.6,1.5,9.5,4.5,11.8c1.8,1.3,3.9,2,6.3,2c3.6,0,6.2-1.3,8.1-4c1.9-2.7,2.8-6.3,2.8-10.8C723.3,110.6,722.4,107.4,720.7,104.5z
			"/>
		<path class="st3" d="M771.3,89.1c0.2,0,0.5,0.1,1.1,0.1v12.9c-0.8-0.1-1.5-0.1-2.1-0.2c-0.6,0-1.1-0.1-1.5-0.1
			c-5.1,0-8.5,1.6-10.2,5c-1,1.9-1.4,4.7-1.4,8.6v23.1h-12.7V90.3h12v8.4c1.9-3.2,3.6-5.4,5.1-6.6c2.4-2,5.4-3,9.2-3
			C770.9,89.1,771.1,89.1,771.3,89.1z"/>
		<path class="st3" d="M798.2,109.1c2.4-0.3,4-0.7,5-1.1c1.8-0.8,2.7-1.9,2.7-3.6c0-2-0.7-3.3-2.1-4.1c-1.4-0.7-3.4-1.1-6.1-1.1
			c-3,0-5.1,0.7-6.4,2.2c-0.9,1.1-1.5,2.5-1.8,4.4h-12.1c0.2-4.2,1.4-7.7,3.6-10.4c3.3-4.2,9.1-6.3,17.2-6.3c5.3,0,10,1,14.1,3.1
			c4.1,2.1,6.2,6,6.2,11.8v22.1c0,1.5,0,3.4,0.1,5.6c0.1,1.6,0.4,2.8,0.7,3.4c0.4,0.6,1,1.1,1.9,1.4v1.9h-13.7
			c-0.4-1-0.7-1.9-0.8-2.7c-0.1-0.8-0.2-1.8-0.4-2.9c-1.8,1.9-3.7,3.5-6,4.8c-2.7,1.6-5.8,2.4-9.2,2.4c-4.4,0-8-1.3-10.9-3.7
			c-2.8-2.5-4.3-6-4.3-10.6c0-5.9,2.3-10.2,6.9-12.9c2.5-1.4,6.2-2.5,11.1-3.1L798.2,109.1z M805.9,115c-0.8,0.5-1.6,0.9-2.4,1.2
			c-0.8,0.3-1.9,0.6-3.4,0.8l-2.9,0.5c-2.7,0.5-4.6,1-5.8,1.8c-2,1.1-3,3-3,5.4c0,2.2,0.6,3.7,1.8,4.6c1.2,1,2.7,1.4,4.4,1.4
			c2.8,0,5.3-0.8,7.6-2.4c2.3-1.6,3.5-4.5,3.6-8.7V115z"/>
	</g>
	<circle class="st4" cx="918.2" cy="110.1" r="80"/>
	<g>
		<path class="st5" d="M866.4,67.8c-4,0-7.1-1-8.9-2.6l1.6-1.8c3.7,3.4,15.4,2.7,27.8-4.5c13.8-8,20.8-17,17.8-22.9l2.2-1.1
			c3.6,7.3-3.6,17.3-18.8,26.1C879.8,65.8,872.2,67.8,866.4,67.8z"/>
	</g>
	<g>
		<path class="st5" d="M843.5,111.3c-1.8,0-3.6-0.1-5.5-0.1l0.1-2.4c32.1,1.1,48.3-7.3,67.7-19.4c13.5-8.4,24.6-17.9,32-27.5
			c7.6-9.8,11-19.3,9.7-27.4l2.4-0.4c2.7,17.3-13.7,39.2-42.8,57.4C889.1,102.7,872.8,111.3,843.5,111.3z"/>
	</g>
	<g>
		<path class="st5" d="M984.9,69c0.1,0.5,0.1,0.9,0.1,1.4c0,0.2,0,0.4,0.1,0.7c0.1,0.8,0-1.9,0-1.5c0,0.2,0,0.3,0,0.5
			c-0.1,1-0.1,2.1-0.3,3.1c-0.3,2.1-0.8,4.2-1.4,6.2c-1.4,4.7-3.6,9.2-6.1,13.5c-6,10.3-14.1,19.4-23,27.3
			c-9.2,8.1-19.6,14.7-30.8,19.7c-11.4,5.2-23.4,9.1-35.7,11.8c-10.9,2.5-22,3.9-33.1,3.3c-0.8-0.1-1.7-0.1-2.5-0.1c0,0-0.1,3,0,3
			c4.8,0.2,9.5,0.4,14.3,0.1c6-0.4,12.1-1.3,18-2.5c12.7-2.6,25.1-6.5,37-11.7c5.4-2.3,10.6-4.9,15.6-7.9c5.7-3.4,11-7.4,16.1-11.7
			c9.4-8,17.8-17.4,24.1-28c2.6-4.3,4.8-9,6.3-13.8c0.7-2.1,1.1-4.2,1.4-6.3c0.4-2.4,0.4-4.9,0.3-7.4c0-0.8-0.1-1.8-0.2-2.6
			C985.1,67,984.8,68,984.9,69L984.9,69z"/>
	</g>
	<g>
		
			<radialGradient id="SVGID_00000088832735641751810800000017896254776558870146_" cx="983.0129" cy="166.5848" r="105.9646" gradientTransform="matrix(1 0 0 -1 0 225.3529)" gradientUnits="userSpaceOnUse">
			<stop  offset="0.4511" style="stop-color:#FFFFFF"/>
			<stop  offset="0.9181" style="stop-color:#FFFFFF;stop-opacity:0.105"/>
			<stop  offset="0.9729" style="stop-color:#FFFFFF;stop-opacity:0"/>
		</radialGradient>
		<path style="fill:url(#SVGID_00000088832735641751810800000017896254776558870146_);" d="M887.7,37.3c6.8-1.7,13.9-1.4,20.8-1
			c16.9,1.2,33.1,7.2,47,16.9c23.6,16.5,35.6,44.6,33.2,73.1c-1,12.6-4.6,26.3-13.9,35.2c-0.1,0.1,1.8-0.5,2.2-1
			c7.7-7.8,11.6-18.5,13.3-29.1c2.2-13.2,1.1-27.1-3-39.9c-4.5-13.9-12.7-26.6-24.1-35.7c-13.7-11-30.4-18.3-47.9-20.5
			c-8.4-1.1-17.6-1.3-25.9,0.7c-0.5,0.1-6.2,2.4-5.9,2.4L887.7,37.3z"/>
	</g>
	<g>
		
			<radialGradient id="SVGID_00000072978809335309215900000009007597610020569757_" cx="964.165" cy="146.8088" r="97.4362" gradientTransform="matrix(1 0 0 -1 0 225.3529)" gradientUnits="userSpaceOnUse">
			<stop  offset="0.4511" style="stop-color:#FFFFFF"/>
			<stop  offset="0.9181" style="stop-color:#FFFFFF;stop-opacity:0.105"/>
			<stop  offset="0.9729" style="stop-color:#FFFFFF;stop-opacity:0"/>
		</radialGradient>
		<path style="fill:url(#SVGID_00000072978809335309215900000009007597610020569757_);" d="M875.7,42.8c5-0.2,12.7,0.8,17.5,1.8
			c12.5,2.5,24.4,7.6,34.9,14.7c28,18.9,49.2,52.5,43.3,87.1c-1.3,7.5-7.6,22.6-11.8,29.2c0.1-0.2,5.9-7.5,6.3-8.2
			c3.4-5.3,5.5-11.7,6.9-17.8c3.4-14.3,2.3-29.4-2.9-43.2c-11.3-30.1-39.1-54.6-70.3-62.4c-6.1-1.5-12.7-2.8-19.1-2.4
			C879.8,41.7,875.7,42.8,875.7,42.8z"/>
	</g>
	<g>
		
			<radialGradient id="SVGID_00000111909887327106249100000008431930208210550438_" cx="913.9573" cy="113.8354" r="79.8447" gradientTransform="matrix(1 0 0 -1 0 225.3529)" gradientUnits="userSpaceOnUse">
			<stop  offset="0.4511" style="stop-color:#FFFFFF"/>
			<stop  offset="0.9181" style="stop-color:#FFFFFF;stop-opacity:0.105"/>
			<stop  offset="0.9729" style="stop-color:#FFFFFF;stop-opacity:0"/>
		</radialGradient>
		<path style="fill:url(#SVGID_00000111909887327106249100000008431930208210550438_);" d="M894.6,81.9
			c11.9,21.9,23.9,43.7,36.3,65.3c5.4,9.4,7.8,14.7,13,21.1c2.4,3,9.2,11.7,9.1,11.5c-11.9-18.1-25.1-43.2-35.6-62.1
			C906.4,98,895.6,78.3,885,58.4c-2.2-4.2-4.5-7.2-8.2-12.7c-0.5-0.7-2-2.7-1.8-2.4C875,43.4,888.3,70.4,894.6,81.9z"/>
	</g>
	<path class="st5" d="M859.3,73.6H872l18.1,42.9l9.1-43.5h12.1l-12.7,67.6l-13.1,0.1l-18.3-45.3l-9.1,43.5h-12.7L859.3,73.6z"/>
	<path class="st5" d="M951.7,101.2c1.3,2.8,1.8,6.1,1.5,9.8c-0.1,2.2-0.6,5.3-1.6,9.4l-30.1,0.2c0.6,1.8,0,9.7,7.2,10.3
		s9.3-4.6,10.3-6l11.5-0.6c-0.9,2.8-3.7,8.2-6.9,11c-5,4.6-11,6.9-18.2,6.9c-5.9,0-10.7-1.9-14.5-5.8c-3.7-3.9-4.6-10.2-2.8-19
		c1.7-8.2,5.1-14.5,10.1-18.8c5-4.3,10.8-6.6,17.3-6.6c3.9,0,7.2,0.7,10,2.2C948.3,95.7,950.4,98,951.7,101.2z M920.3,114l19.3-0.2
		c1.1-3.1,1.1-5.7,0-7.6c-1.1-1.9-2.9-3.1-5.4-3.6c-2.8-0.5-5.3-0.1-7.5,1.3C924.4,105.4,921.9,111.2,920.3,114z"/>
	
		<linearGradient id="SVGID_00000082325887140962395660000015994607757525964202_" gradientUnits="userSpaceOnUse" x1="945.2953" y1="123.0087" x2="1060.2012" y2="166.2354" gradientTransform="matrix(1 0 0 -1 0 225.3529)">
		<stop  offset="0.3201" style="stop-color:#B3B3B3"/>
		<stop  offset="0.3522" style="stop-color:#A7A7A7"/>
		<stop  offset="0.4371" style="stop-color:#8C8C8C"/>
		<stop  offset="0.5297" style="stop-color:#767677"/>
		<stop  offset="0.6325" style="stop-color:#676768"/>
		<stop  offset="0.7534" style="stop-color:#5F5F60"/>
		<stop  offset="0.9379" style="stop-color:#5C5C5D"/>
	</linearGradient>
	<path style="fill:url(#SVGID_00000082325887140962395660000015994607757525964202_);" d="M970.4,44.6c42.9-6.5,69-1.7,78.5,9.1
		c10,11.2-13.5,34.2-38.4,53.7c-25,19.4-66.7,45.3-66.7,45.3l56.9-48.2c0,0,28.6-22.1-4.1-26.3h-5.2c0,0-10.9-22-26.6-32.9"/>
	<path class="st5" d="M958.7,102.2l1.8-8.5h7.2v-6.6l11.5-6.6L978,93.8h6.6l-1.2,8.5H975l-3.5,24.1c-0.4,1.9-0.4,3.1,0,3.6
		c0.8,1,6.9,0.1,7.4,0l-2,8.6l-5.9,0.2c-5.8,0.2-9.5-0.8-11.2-3c-1.1-1.4-1.3-3.6-0.7-6.6l5-27.1L958.7,102.2L958.7,102.2z"/>
	
		<radialGradient id="SVGID_00000131348590887322487580000002210866212457038989_" cx="686.6443" cy="182.5947" r="0" gradientTransform="matrix(0.5 0 0 -1 527.5 225.3529)" gradientUnits="userSpaceOnUse">
		<stop  offset="0.4511" style="stop-color:#FFFFFF"/>
		<stop  offset="0.9181" style="stop-color:#FFFFFF;stop-opacity:0.105"/>
		<stop  offset="0.9729" style="stop-color:#FFFFFF;stop-opacity:0"/>
	</radialGradient>
	<path style="fill:url(#SVGID_00000131348590887322487580000002210866212457038989_);" d="M870.8,42.8"/>
	<g>
		
			<radialGradient id="SVGID_00000042710274794192492040000007545368111706198144_" cx="843.907" cy="79.7057" r="106.1877" fx="837.8223" fy="80.0484" gradientTransform="matrix(1 0 0 -1 0 225.3529)" gradientUnits="userSpaceOnUse">
			<stop  offset="0.4511" style="stop-color:#FFFFFF"/>
			<stop  offset="0.9224" style="stop-color:#FFFFFF;stop-opacity:0.1413"/>
			<stop  offset="1" style="stop-color:#FFFFFF;stop-opacity:0"/>
		</radialGradient>
		<path style="fill:url(#SVGID_00000042710274794192492040000007545368111706198144_);" d="M946.7,179c-29.8-6.8-52.3-21.6-67-44.3
			c-16.9-26.1-13.5-74.1-8.3-84.3c1.2-2.3,3.3-6.3,3.6-6.5l-1.8,6c-0.6,2.4-3,14.9-3.2,32.1c-0.2,15.4,1.5,36.8,11.2,51.7
			c14.4,22.2,36.6,36.8,65.9,43.5L946.7,179z"/>
	</g>
	<g>
		
			<radialGradient id="SVGID_00000120541351446316139200000002037642120918908067_" cx="852.1971" cy="110.6446" r="77.1561" fx="851.8759" fy="110.6523" gradientTransform="matrix(1 0 0 -1 0 225.3529)" gradientUnits="userSpaceOnUse">
			<stop  offset="0.4541" style="stop-color:#FFFFFF"/>
			<stop  offset="0.9185" style="stop-color:#FFFFFF;stop-opacity:0.105"/>
			<stop  offset="0.9729" style="stop-color:#FFFFFF;stop-opacity:0"/>
		</radialGradient>
		<path style="fill:url(#SVGID_00000120541351446316139200000002037642120918908067_);" d="M895.3,185.5c-34-10.7-52.9-52.1-49.2-84
			c4.2-36.8,21.6-51,22.3-51.5l6-4.8l-5.4,6c-0.2,0.1-17,14.6-21.1,50.5c-1.8,15.2,2,33.2,10,48.2c8.9,16.9,22.5,28.9,38,33.8
			L895.3,185.5z"/>
	</g>
</g>
<g>
	<path class="st13" d="M34,155.1V93.2c0-1.1-0.3-1.9-0.8-2.5c-0.5-0.6-1.4-1-2.7-1.4v-1.7h22.8v1.7c-1.3,0.3-2.2,0.8-2.7,1.4
		c-0.5,0.6-0.8,1.4-0.8,2.5v61.9c0,1.1,0.3,2,0.8,2.5c0.5,0.6,1.4,1,2.6,1.4v1.7H30.6V159c1.3-0.4,2.2-0.8,2.7-1.4
		C33.8,157,34,156.2,34,155.1z"/>
	<path class="st14" d="M56.9,120.5h24.4c4.9,0,8.3-0.5,10.2-1.6c1.2-0.7,2.3-1.8,3-3.2c0.8-1.5,1.1-3.1,1.1-4.9
		c0-1.8-0.4-3.4-1.1-4.8c-0.8-1.5-1.8-2.6-3-3.2c-1.9-1-5.3-1.6-10.2-1.6H56.9l0-12h26.2c5.3,0,9.5,0.4,12.7,1.1
		c3.1,0.7,5.9,1.9,8.3,3.7c2.5,1.8,4.4,4.2,5.8,7.2c1.4,3.1,2.1,6.3,2.1,9.7c0,4.9-1.3,9.2-4,13c-2.3,3.2-5.3,5.4-9.1,6.8
		c-3.8,1.3-9,2-15.8,2H56.9V120.5z"/>
	<g>
		<path class="st14" d="M128.5,107.7V119c0,0.5,0.1,0.9,0.4,1.2c0.2,0.3,0.7,0.5,1.2,0.6v0.8h-10.7v-0.8c0.6-0.2,1-0.4,1.3-0.7
			c0.2-0.3,0.4-0.7,0.4-1.2V89.9c0-0.5-0.1-0.9-0.4-1.2c-0.2-0.3-0.7-0.5-1.3-0.7v-0.8h21.5c2.5,0,4.5,0.2,6,0.5
			c1.5,0.3,2.8,0.9,3.9,1.7c1.2,0.9,2.1,2,2.7,3.4c0.7,1.4,1,3,1,4.6c0,2.3-0.6,4.4-1.9,6.1c-1.1,1.5-2.5,2.6-4.3,3.2
			c-1.8,0.6-4.3,0.9-7.4,0.9H128.5z M128.5,102H140c2.3,0,3.9-0.2,4.8-0.7c0.6-0.3,1.1-0.8,1.4-1.5c0.4-0.7,0.5-1.5,0.5-2.3
			c0-0.8-0.2-1.6-0.5-2.3c-0.4-0.7-0.8-1.2-1.4-1.5c-0.9-0.5-2.5-0.7-4.8-0.7h-11.5V102z"/>
		<path class="st14" d="M166.7,116.5h15.8c0.5,0,0.9-0.1,1.2-0.3c0.3-0.2,0.5-0.7,0.7-1.3h0.7v8.4h-0.7c-0.2-0.6-0.4-1-0.7-1.3
			c-0.3-0.2-0.7-0.4-1.2-0.4h-24.2v-0.7c0.6-0.2,1-0.4,1.2-0.7c0.2-0.3,0.4-0.7,0.4-1.2V96c0-0.5-0.1-0.9-0.4-1.2
			c-0.2-0.3-0.7-0.5-1.3-0.7v-0.7h10v0.7c-0.6,0.2-1,0.4-1.3,0.7c-0.2,0.3-0.4,0.7-0.4,1.2V116.5z"/>
		<path class="st14" d="M209.4,114.6h-13l-1.5,3.1c-0.4,0.7-0.5,1.3-0.5,1.7c0,0.8,0.5,1.3,1.6,1.5v0.7h-10.4v-0.7
			c0.6-0.1,1.1-0.3,1.4-0.6c0.3-0.3,0.7-0.8,1.1-1.7l10.3-20.9c0.4-0.8,0.6-1.5,0.6-2.1c0-0.7-0.5-1.2-1.4-1.6v-0.7h11v0.7
			c-0.9,0.4-1.4,0.9-1.4,1.7c0,0.6,0.2,1.2,0.6,2l10.7,20.3c0.6,1.1,1.1,1.8,1.4,2.1c0.3,0.3,0.8,0.6,1.5,0.7v0.7h-11.5v-0.7
			c1.1-0.2,1.6-0.7,1.6-1.5c0-0.5-0.2-1.2-0.6-1.9L209.4,114.6z M207.3,110.6l-4.6-9.1l-4.4,9.1H207.3z"/>
		<path class="st14" d="M239.4,98.5v20.5c0,0.5,0.1,0.9,0.4,1.2c0.2,0.3,0.7,0.5,1.3,0.7v0.7h-10v-0.7c0.6-0.2,1-0.4,1.2-0.7
			c0.2-0.3,0.4-0.7,0.4-1.2V98.5h-8.3c-0.5,0-0.9,0.1-1.2,0.4c-0.3,0.2-0.5,0.7-0.7,1.3h-0.7v-8.4h0.7c0.2,0.6,0.4,1,0.6,1.2
			c0.3,0.2,0.7,0.4,1.2,0.4h23.4c0.5,0,0.9-0.1,1.2-0.4c0.3-0.2,0.5-0.7,0.7-1.3h0.7v8.4h-0.7c-0.2-0.6-0.4-1-0.7-1.3
			c-0.3-0.2-0.7-0.4-1.2-0.4H239.4z"/>
		<path class="st14" d="M271.5,114.6h-13l-1.5,3.1c-0.4,0.7-0.5,1.3-0.5,1.7c0,0.8,0.5,1.3,1.6,1.5v0.7h-10.4v-0.7
			c0.6-0.1,1.1-0.3,1.4-0.6c0.3-0.3,0.7-0.8,1.1-1.7l10.3-20.9c0.4-0.8,0.6-1.5,0.6-2.1c0-0.7-0.5-1.2-1.4-1.6v-0.7h11v0.7
			c-0.9,0.4-1.4,0.9-1.4,1.7c0,0.6,0.2,1.2,0.6,2l10.7,20.3c0.6,1.1,1.1,1.8,1.4,2.1c0.3,0.3,0.8,0.6,1.5,0.7v0.7H272v-0.7
			c1.1-0.2,1.6-0.7,1.6-1.5c0-0.5-0.2-1.2-0.6-1.9L271.5,114.6z M269.5,110.6l-4.6-9.1l-4.4,9.1H269.5z"/>
		<path class="st14" d="M294.3,109.6v9.4c0,0.5,0.1,0.9,0.4,1.2c0.2,0.3,0.7,0.5,1.3,0.7v0.7h-10v-0.7c0.6-0.2,1-0.4,1.2-0.7
			c0.2-0.3,0.4-0.7,0.4-1.2V96c0-0.5-0.1-0.9-0.4-1.2c-0.2-0.3-0.7-0.5-1.3-0.7v-0.7h25.3c0.5,0,0.9-0.1,1.2-0.4
			c0.3-0.2,0.5-0.7,0.7-1.3h0.7v8.4h-0.7c-0.2-0.6-0.4-1-0.7-1.3c-0.3-0.2-0.7-0.4-1.2-0.4h-17v6.2H305c0.5,0,0.9-0.1,1.2-0.4
			c0.3-0.2,0.5-0.7,0.7-1.3h0.7v8.1h-0.7c-0.2-0.6-0.4-1-0.7-1.3c-0.3-0.2-0.7-0.4-1.2-0.4H294.3z"/>
		<path class="st14" d="M332.9,92.8c4.5,0,8.2,1.1,11.2,3.4c3.6,2.8,5.4,6.6,5.4,11.5c0,4.6-1.8,8.3-5.4,11.1
			c-3,2.3-6.7,3.4-11.2,3.4c-4.5,0-8.2-1.1-11.2-3.4c-3.6-2.8-5.4-6.5-5.4-11.3c0-4.8,1.8-8.6,5.4-11.3
			C324.8,94,328.5,92.8,332.9,92.8z M333,98.1c-2.9,0-5.3,0.9-7.1,2.8c-1.7,1.8-2.6,3.9-2.6,6.6c0,2.6,0.9,4.8,2.6,6.6
			c1.8,1.9,4.2,2.8,7.1,2.8c2.9,0,5.3-0.9,7.1-2.8c1.7-1.7,2.6-3.9,2.6-6.4c0-2.8-0.9-5-2.6-6.7C338.2,99.1,335.9,98.2,333,98.1z"/>
		<path class="st14" d="M362.2,110.1v9c0,0.5,0.1,0.9,0.4,1.2c0.2,0.3,0.7,0.5,1.3,0.7v0.7h-10v-0.7c0.6-0.2,1-0.4,1.2-0.7
			c0.2-0.3,0.4-0.7,0.4-1.2V96c0-0.5-0.1-0.9-0.4-1.2c-0.2-0.3-0.7-0.5-1.3-0.7v-0.7h18.5c2.4,0,4.2,0.1,5.5,0.4
			c1.3,0.2,2.4,0.7,3.4,1.3c2,1.3,3.1,3.5,3.1,6.5c0,2.3-0.6,4.1-1.9,5.4c-1.3,1.3-3.3,2.2-6.1,2.8l5.3,7.5c1,1.4,1.8,2.3,2.3,2.8
			c0.6,0.5,1.2,0.8,2,0.9v0.7h-11.9v-0.7c0.9-0.2,1.3-0.6,1.3-1.1c0-0.4-0.3-0.9-0.8-1.7l-5.6-8.1H362.2z M362.2,104.9h10.2
			c1.5,0,2.7-0.2,3.4-0.5c1-0.5,1.6-1.4,1.6-2.7c0-1.2-0.4-2-1.1-2.5c-0.7-0.5-2-0.7-3.9-0.7h-10.2V104.9z"/>
		<path class="st14" d="M407.5,121.7l-10.3-18.6v16c0,0.5,0.1,0.9,0.4,1.2c0.2,0.3,0.7,0.5,1.3,0.7v0.7h-9.4v-0.7
			c0.6-0.2,1-0.4,1.2-0.7c0.2-0.3,0.4-0.7,0.4-1.2V96c0-0.5-0.1-0.9-0.4-1.2c-0.2-0.3-0.7-0.5-1.3-0.7v-0.7h11.9v0.7
			c-0.8,0.3-1.2,0.7-1.2,1.4c0,0.7,0.3,1.5,0.9,2.5l7,12.8l7.1-12.6c0.8-1.3,1.2-2.3,1.2-2.8c0-0.7-0.4-1.1-1.2-1.3v-0.7h11.6v0.7
			c-0.6,0.2-1,0.4-1.3,0.7c-0.2,0.3-0.4,0.7-0.4,1.2v23.1c0,0.5,0.1,0.9,0.4,1.2c0.2,0.3,0.7,0.5,1.3,0.7v0.7h-10v-0.7
			c0.6-0.2,1-0.4,1.2-0.7c0.2-0.3,0.4-0.7,0.4-1.2v-16L407.5,121.7z"/>
		<path class="st14" d="M453.1,114.6h-13l-1.5,3.1c-0.4,0.7-0.5,1.3-0.5,1.7c0,0.8,0.5,1.3,1.6,1.5v0.7h-10.4v-0.7
			c0.6-0.1,1.1-0.3,1.4-0.6c0.3-0.3,0.7-0.8,1.1-1.7l10.3-20.9c0.4-0.8,0.6-1.5,0.6-2.1c0-0.7-0.5-1.2-1.4-1.6v-0.7h11v0.7
			c-0.9,0.4-1.4,0.9-1.4,1.7c0,0.6,0.2,1.2,0.6,2l10.7,20.3c0.6,1.1,1.1,1.8,1.4,2.1c0.3,0.3,0.8,0.6,1.5,0.7v0.7h-11.5v-0.7
			c1.1-0.2,1.6-0.7,1.6-1.5c0-0.5-0.2-1.2-0.6-1.9L453.1,114.6z M451.1,110.6l-4.6-9.1l-4.4,9.1H451.1z"/>
	</g>
	<path class="st13" d="M121.5,157.5v-29.2c0-0.5-0.1-0.9-0.4-1.2c-0.2-0.3-0.7-0.5-1.3-0.7v-0.8h10.7v0.8c-0.6,0.2-1,0.4-1.3,0.6
		c-0.2,0.3-0.4,0.7-0.4,1.2v29.2c0,0.5,0.1,0.9,0.4,1.2c0.2,0.3,0.7,0.5,1.2,0.6v0.8h-10.7v-0.8c0.6-0.2,1-0.4,1.3-0.7
		C121.4,158.4,121.5,158,121.5,157.5z"/>
	<path class="st13" d="M143.9,141.5v16c0,0.5,0.1,0.9,0.4,1.2s0.7,0.5,1.2,0.7v0.7h-9.4v-0.7c0.6-0.2,1-0.4,1.2-0.7
		c0.2-0.3,0.4-0.7,0.4-1.2v-23.1c0-0.5-0.1-0.9-0.4-1.2c-0.2-0.3-0.7-0.5-1.3-0.7v-0.7H147v0.7c-0.7,0.2-1.1,0.5-1.1,1
		c0,0.4,0.3,0.9,0.8,1.4l15.2,15v-15.6c0-0.5-0.1-0.9-0.4-1.2c-0.2-0.3-0.7-0.5-1.3-0.7v-0.7h9.4v0.7c-0.6,0.2-1,0.4-1.3,0.7
		c-0.2,0.3-0.4,0.7-0.4,1.2v23.1c0,0.5,0.1,0.9,0.4,1.2c0.2,0.3,0.7,0.5,1.3,0.7v0.7h-10.1v-0.7c0.7-0.2,1.1-0.5,1.1-0.9
		c0-0.2-0.1-0.5-0.3-0.7c-0.2-0.3-0.7-0.7-1.4-1.5L143.9,141.5z"/>
	<path class="st13" d="M190.2,137v20.5c0,0.5,0.1,0.9,0.4,1.2c0.2,0.3,0.7,0.5,1.3,0.7v0.7h-10v-0.7c0.6-0.2,1-0.4,1.2-0.7
		c0.2-0.3,0.4-0.7,0.4-1.2V137h-8.3c-0.5,0-0.9,0.1-1.2,0.4c-0.3,0.2-0.5,0.7-0.7,1.3h-0.7v-8.4h0.7c0.2,0.6,0.4,1,0.6,1.2
		c0.3,0.2,0.7,0.4,1.2,0.4h23.4c0.5,0,0.9-0.1,1.2-0.4c0.3-0.2,0.5-0.7,0.7-1.3h0.7v8.4h-0.7c-0.2-0.6-0.4-1-0.7-1.3
		c-0.3-0.2-0.7-0.4-1.2-0.4H190.2z"/>
	<path class="st13" d="M212.7,148.1v6.9h17.9c0.5,0,0.9-0.1,1.2-0.3c0.3-0.2,0.5-0.7,0.7-1.3h0.7v8.4h-0.7c-0.2-0.6-0.4-1-0.7-1.2
		c-0.3-0.2-0.7-0.4-1.2-0.4h-26.3v-0.7c0.6-0.2,1-0.4,1.2-0.7c0.2-0.3,0.4-0.7,0.4-1.2v-23.1c0-0.5-0.1-0.9-0.4-1.2
		c-0.2-0.3-0.7-0.5-1.3-0.7v-0.7h25.5c0.5,0,0.9-0.1,1.2-0.4c0.3-0.2,0.5-0.7,0.7-1.3h0.7v8.4h-0.7c-0.2-0.6-0.4-1-0.7-1.3
		c-0.3-0.2-0.7-0.3-1.2-0.3h-17.2v6.2h10.6c0.5,0,0.9-0.1,1.2-0.4c0.3-0.2,0.5-0.7,0.7-1.3h0.7v8.1h-0.7c-0.2-0.6-0.4-1-0.7-1.3
		c-0.3-0.2-0.7-0.4-1.2-0.4H212.7z"/>
	<path class="st13" d="M262.9,149.3h-6.4c-0.5,0-0.9,0.1-1.2,0.4c-0.3,0.2-0.5,0.7-0.7,1.3h-0.7v-7.5h0.7c0.2,0.6,0.4,1,0.7,1.3
		c0.3,0.2,0.7,0.4,1.2,0.4H270v0.7c-0.6,0.2-1,0.4-1.2,0.7c-0.2,0.3-0.4,0.8-0.4,1.4v6c0,0.5,0.1,0.9,0.4,1.2
		c0.2,0.3,0.7,0.5,1.2,0.7v0.6c-5.4,3-10.9,4.5-16.3,4.5c-4.7,0-8.5-1.1-11.4-3.3c-1.6-1.2-2.8-2.7-3.8-4.5
		c-1.1-2.1-1.7-4.4-1.7-6.8c0-3.3,1-6.3,3.1-8.9c3.2-4,7.9-6,14.2-6c2.7,0,5.9,0.6,9.4,1.8c1.4,0.5,2.2,0.7,2.4,0.7
		c0.3,0,0.6-0.1,1-0.4l0.6,0.3l-3.4,7.1l-0.6-0.3c0-0.1,0-0.1,0-0.2c0-0.6-0.6-1.3-1.9-1.9c-2.3-1.2-4.8-1.8-7.4-1.8
		c-3,0-5.5,0.8-7.5,2.5c-2.1,1.8-3.1,4.1-3.1,7.1c0,2.8,0.9,5,2.8,6.7c1.9,1.7,4.6,2.5,8.1,2.5c3.3,0,6.1-0.6,8.4-1.8V149.3z"/>
	<path class="st13" d="M282.5,148.6v9c0,0.5,0.1,0.9,0.4,1.2c0.2,0.3,0.7,0.5,1.3,0.7v0.7h-10v-0.7c0.6-0.2,1-0.4,1.2-0.7
		c0.2-0.3,0.4-0.7,0.4-1.2v-23.1c0-0.5-0.1-0.9-0.4-1.2c-0.2-0.3-0.7-0.5-1.3-0.7v-0.7h18.5c2.4,0,4.2,0.1,5.5,0.4s2.4,0.7,3.4,1.3
		c2,1.3,3.1,3.5,3.1,6.5c0,2.3-0.6,4.1-1.9,5.4c-1.3,1.3-3.3,2.2-6.1,2.8l5.3,7.5c1,1.4,1.8,2.3,2.3,2.8c0.6,0.5,1.2,0.8,2,0.9v0.7
		h-11.9v-0.7c0.9-0.2,1.3-0.6,1.3-1.1c0-0.4-0.3-0.9-0.8-1.7l-5.6-8.1H282.5z M282.5,143.4h10.2c1.5,0,2.7-0.2,3.4-0.5
		c1-0.5,1.6-1.4,1.6-2.7c0-1.2-0.4-2-1.1-2.5c-0.7-0.5-2-0.7-3.9-0.7h-10.2V143.4z"/>
	<path class="st13" d="M332.3,153.1h-13l-1.5,3.1c-0.4,0.7-0.5,1.3-0.5,1.7c0,0.8,0.5,1.3,1.6,1.5v0.7h-10.4v-0.7
		c0.6-0.1,1.1-0.3,1.4-0.6c0.3-0.3,0.7-0.8,1.1-1.7l10.3-20.9c0.4-0.8,0.6-1.5,0.6-2.1c0-0.7-0.5-1.2-1.4-1.6v-0.7h11v0.7
		c-0.9,0.4-1.4,0.9-1.4,1.7c0,0.6,0.2,1.2,0.6,2l10.7,20.3c0.6,1.1,1.1,1.8,1.4,2.1c0.3,0.3,0.8,0.6,1.5,0.7v0.7h-11.5v-0.7
		c1.1-0.2,1.6-0.7,1.6-1.5c0-0.5-0.2-1.2-0.6-1.9L332.3,153.1z M330.2,149.1l-4.6-9.1l-4.4,9.1H330.2z"/>
	<path class="st13" d="M355.1,155h15.8c0.5,0,0.9-0.1,1.2-0.3c0.3-0.2,0.5-0.7,0.7-1.3h0.7v8.4h-0.7c-0.2-0.6-0.4-1-0.7-1.3
		c-0.3-0.2-0.7-0.4-1.2-0.4h-24.2v-0.7c0.6-0.2,1-0.4,1.2-0.7c0.2-0.3,0.4-0.7,0.4-1.2v-23.1c0-0.5-0.1-0.9-0.4-1.2
		c-0.2-0.3-0.7-0.5-1.3-0.7v-0.7h10v0.7c-0.6,0.2-1,0.4-1.3,0.7c-0.2,0.3-0.4,0.7-0.4,1.2V155z"/>
</g>
</svg>
