<?xml version="1.0" encoding="utf-8"?>
<!-- Generator: Adobe Illustrator 26.0.1, SVG Export Plug-In . SVG Version: 6.00 Build 0)  -->
<svg version="1.1" id="Capa_1" xmlns="http://www.w3.org/2000/svg" xmlns:xlink="http://www.w3.org/1999/xlink" x="0px" y="0px"
	 viewBox="0 0 1070 245.6" style="enable-background:new 0 0 1070 245.6;" xml:space="preserve">
<style type="text/css">
	.st0{fill:#98989A;}
</style>
<g>
	<path class="st0" d="M250.3,181.8L214,53.8h-1c0.3,3.3,0.7,7.8,1,13.5c0.3,5.6,0.7,11.8,1,18.3c0.3,6.6,0.5,12.9,0.5,19.1v77.2
		h-42.6V4h64L274,130.3h1L311.4,4h64v177.9h-44.1v-78c0-5.6,0.1-11.7,0.2-18.1c0.2-6.4,0.4-12.5,0.7-18.2c0.3-5.7,0.6-10.3,0.7-13.6
		h-1l-35.9,127.8H250.3z"/>
	<path class="st0" d="M478.3,41.6c17.4,0,31.1,4.3,40.9,13c9.8,8.6,14.7,20.9,14.7,36.9v90.4H501l-9.2-18.2h-1
		c-3.8,4.8-7.8,8.8-11.8,11.8c-4.1,3.1-8.8,5.3-14.1,6.7c-5.3,1.4-11.8,2.1-19.4,2.1c-8,0-15.1-1.6-21.4-4.9
		c-6.3-3.2-11.3-8.1-14.9-14.7c-3.7-6.6-5.5-14.9-5.5-25c0-14.8,5.1-25.7,15.3-32.9c10.2-7.1,25-11.1,44.5-12l22.9-0.7v-2
		c0-6.1-1.5-10.5-4.5-13.1c-3-2.6-7.1-3.9-12.2-3.9c-5.5,0-11.5,1-18.2,2.9c-6.6,1.9-13.4,4.4-20.2,7.4L417.5,54
		c8-4.1,17-7.3,27-9.3C454.6,42.6,465.8,41.6,478.3,41.6z M475.5,120.8c-8.6,0.3-14.7,1.9-18.3,4.6c-3.6,2.7-5.4,6.6-5.4,11.6
		c0,4.7,1.2,8.1,3.7,10.3c2.5,2.2,5.8,3.4,10,3.4c5.8,0,10.8-1.8,14.8-5.5c4.1-3.7,6.1-8.4,6.1-14.2v-10.7L475.5,120.8z"/>
	<path class="st0" d="M549.5,44.1h50.1l23.4,79c0.3,1.2,0.7,2.6,1,4.2c0.3,1.7,0.6,3.4,0.9,5.2c0.2,1.8,0.4,3.7,0.4,5.5h1
		c0.3-3.3,0.8-6.2,1.4-8.6c0.6-2.4,1.1-4.4,1.6-6.1l23.9-79.2h48.6l-54.6,146.5c-4.2,11.1-9,20.5-14.6,28.2
		c-5.6,7.6-12.4,13.4-20.6,17.2c-8.1,3.8-18.3,5.7-30.4,5.7c-4.3,0-8.1-0.2-11.2-0.6c-3.2-0.4-5.9-0.9-8.2-1.4v-37.4
		c1.8,0.3,4,0.7,6.6,1c2.6,0.3,5.3,0.5,8.1,0.5c5.3,0,9.6-1.1,12.8-3.2c3.2-2.2,5.9-4.9,8.1-8.3c2.2-3.4,4-7.1,5.5-11.1l0.5-1.2
		L549.5,44.1z"/>
	<path class="st0" d="M785.4,41.6c17.4,0,31.1,4.3,40.9,13c9.8,8.6,14.7,20.9,14.7,36.9v90.4h-32.9l-9.2-18.2h-1
		c-3.8,4.8-7.8,8.8-11.8,11.8c-4.1,3.1-8.8,5.3-14.1,6.7c-5.3,1.4-11.8,2.1-19.4,2.1c-8,0-15.1-1.6-21.4-4.9
		c-6.3-3.2-11.3-8.1-14.9-14.7c-3.7-6.6-5.5-14.9-5.5-25c0-14.8,5.1-25.7,15.3-32.9c10.2-7.1,25-11.1,44.5-12l22.9-0.7v-2
		c0-6.1-1.5-10.5-4.5-13.1c-3-2.6-7.1-3.9-12.2-3.9c-5.5,0-11.5,1-18.2,2.9c-6.6,1.9-13.4,4.4-20.2,7.4L724.7,54
		c8-4.1,17-7.3,27-9.3C761.7,42.6,773,41.6,785.4,41.6z M782.7,120.8c-8.6,0.3-14.7,1.9-18.3,4.6c-3.6,2.7-5.4,6.6-5.4,11.6
		c0,4.7,1.2,8.1,3.7,10.3c2.5,2.2,5.8,3.4,10,3.4c5.8,0,10.8-1.8,14.8-5.5c4.1-3.7,6.1-8.4,6.1-14.2v-10.7L782.7,120.8z"/>
</g>
</svg>
